<svg xmlns="http://www.w3.org/2000/svg" height="800" width="1200" viewBox="-39.6885 -16.58575 343.967 99.5145"><path d="M252.652.826h11.938v64.457h-11.938zM32.906 0C14.646 0 0 14.82 0 33.082c0 18.35 14.646 33.086 32.906 33.086 18.35 0 32.995-14.736 32.995-33.086C65.901 14.821 51.256 0 32.906 0zm0 54.341c-11.73 0-20.996-9.526-20.996-21.26 0-11.734 9.266-21.26 20.996-21.26 11.734 0 21.087 9.527 21.087 21.261-.001 11.733-9.353 21.259-21.087 21.259zm66.427-41.728c-6.619 0-12 2.912-15.441 7.414v-6.354H72.071v51.61H83.98v-28.32c0-8.994 5.295-14.022 12.088-14.022 7.764 0 11.646 5.029 11.646 12.966v29.379H119.8V34.671c-.002-13.763-7.766-22.058-20.467-22.058zm52.485 0c-15.084 0-26.816 11.914-26.816 26.997 0 14.909 11.027 26.733 27.259 26.733 11.468 0 19.584-5.651 24.084-13.942l-9.793-5.645c-2.469 5.469-7.674 9.088-14.291 9.088-8.469 0-14.293-4.941-15.879-12.18h41.992v-4.499c0-15.258-11.202-26.552-26.556-26.552zm-14.821 21.086c2.119-6.261 7.675-10.585 14.818-10.585 7.409 0 12.707 3.705 14.469 10.585zm95.97 10.056c0 6.353-5.029 11.294-11.291 11.294-6.351 0-11.119-4.941-11.119-11.294V.882h-11.994v42.167c0 15.173 9.791 23.118 23.203 23.118 13.315 0 23.199-7.945 23.199-23.118V.882h-11.998z"/></svg>